<svg version="1.1" viewBox="0 0 282.46 249.49" xmlns="http://www.w3.org/2000/svg" xmlns:xlink="http://www.w3.org/1999/xlink">
 <defs>
  <clipPath id="clipPath5516">
   <path d="m0 381.45h800v-381.45h-800z"/>
  </clipPath>
  <clipPath id="clipPath5532">
   <path d="M 0,307.2 H 800.679 V 0 H 0 Z"/>
  </clipPath>
  <clipPath id="clipPath5548">
   <path d="m0 199h800.68v-199h-800.68z"/>
  </clipPath>
 </defs>
 <g transform="translate(35.902 17.128)">
  <g transform="translate(1.5875 -16.933)">
   <g transform="matrix(.35278 0 0 .44096 238.46 229.16)" fill="#f54f4f">
    <path d="m0 0c-4.784 0.435-14.789 4.35-17.834 4.35s-11.31-2.175-17.834-2.175c-8.825 0-19.669-1.59-28.002 1.898-5.233 2.192-5.692 5.089-12.029 4.878-1.661-0.055-9.058-3.022-9.994-0.684-0.87 2.174-3.913 2.608-3.913 2.608s-4.786 0-6.526 1.74-1.305 2.61-4.349 2.61c-1.768 0-3.576 0.234-5.269 0.747-1.807 0.547-2.909 1.701-4.498 2.529-1.637 0.853-2.605-0.078-4.324-0.048-1.684 0.029-3.336 0.968-4.615 1.991-2.173 1.741-6.959 2.611-9.133 1.741-2.175-0.871-4.35-5.22-8.265-3.553-3.916 1.668-2.611 0.073-7.83 0-5.22-0.071-10.875-3.407-13.92-2.102s-5.654 4.35-11.31 5.655c-5.655 1.304-14.354 9.57-21.314 15.66-6.96 6.089-10.438 7.829-15.659 7.829h-18.27c-5.219 0-13.484-4.785-20.879-7.552-7.394-2.768-10.439-2.888-16.204-1.147-5.762 1.74-7.286 1.304-13.376 0-6.09-1.307-10.875-4.351-16.964-6.526s-7.395-9.135-11.745-9.135c-4.349 0-5.219 0.871-9.134 0.871-3.914 0-5.655-1.741-8.264-1.741-2.61 0-9.135 0-16.965 3.045s-9.57 3.915-13.051 3.915c-3.478 0-7.829-0.435-13.049-2.175-5.219-1.74-2.173 1.305-8.699 0-6.525-1.305-10.44-2.174-13.484-2.61-3.046-0.434-11.311-4.349-14.355-9.134-1.143-1.796-2.47-3.408-3.888-4.791-4.142-0.754-7.734-2.061-8.387-0.429-0.869 2.175-3.915 2.61-3.915 2.61s-4.785 0-6.524 1.74c-1.74 1.74-1.305 2.61-4.35 2.61s-8.265 0.87-10.004 3.915c-1.741 3.045 0 0-2.175-0.508-2.176-0.507-4.351 0.073-6.526 1.812-2.174 1.741-6.96 2.611-9.134 1.741-2.175-0.871-4.35-5.22-8.264-3.553-3.916 1.668-2.611 0.073-7.831 0-5.219-0.071-10.874-3.407-13.92-2.102-3.044 1.305-5.654 4.35-11.309 5.655-5.655 1.304-14.355 9.57-21.315 15.66-6.959 6.089-10.439 7.829-15.659 7.829h-18.269c-5.22 0-13.485-4.785-20.879-7.552-7.395-2.768-10.44-2.888-16.204-1.147-5.764 1.74-7.286 1.304-13.376 0-6.09-1.307-10.875-4.351-16.964-6.526-6.09-2.175-7.395-9.135-11.745-9.135s-5.22 0.871-9.135 0.871-5.654-1.741-8.264-1.741-9.135 0-16.965 3.045-9.569 3.915-13.05 3.915c-3.479 0-7.829-0.435-13.05-2.175-5.219-1.74-2.174 1.305-8.699 0-6.524-1.305-10.44-2.174-13.484-2.61-3.045-0.434-11.31-4.349-14.355-9.134-3.045-4.786-7.395-8.264-11.31-9.57-3.914-1.306-12.18-4.785-19.139-10.005-6.96-5.22-23.06 4.063-23.06 4.063v-518.09h800v515s-13.009 4.677-17.794 5.113" fill="#f54f4f"/>
   </g>
   <g transform="matrix(.35278 0 0 .44096 -31.213 203.62)" fill="#dd3f40">
    <path d="m0 0c4.784-1.649 14.789-0.373 17.834-1.214 3.044-0.964 11.305-6.502 17.828-8.385 3.07-0.885 5.835-0.115 8.901 0.141 3.814 0.319 5.315-0.994 8.688-2.073 3.269-1.045 6.864-1.133 10.256-0.823 4.785 0.444 3.916 6.127 9.57 5.247 5.655-0.851 11.744-6.682 12.615-3.205 0.87 3.486 3.914 3.875 3.914 3.875 0-3e-3 4.786-0.537 6.526 2.261s1.305 4.326 4.348 4.078c4.151-0.339 5.157 2.431 8.252 4.416 3.943 2.53 6.873-1.339 10.455 3.585 2.173 2.988 6.959 4.402 9.133 2.791 2.175-1.617 4.35-9.432 8.265-6.538 3.916 2.913 2.611 0.078 7.83-0.11 5.22-0.182 10.875-6.109 13.92-3.749 3.045 2.351 5.654 7.828 11.31 10.278 5.655 2.434 14.354 17.526 21.314 28.7 6.96 11.161 10.438 14.32 15.659 14.317h18.27c5.219-0.04 13.484-8.313 20.879-12.669 7.394-4.39 10.439-4.351 16.204-1.365 5.762 2.989 7.286 2.283 13.376 0.494 6.09-1.8 10.875-6.155 16.964-8.882 6.089-2.771 7.395-12.439 11.745-11.9 4.349 0.516 5.219 1.809 9.134 2.26 3.914 0.447 5.655-1.641 8.264-1.301 2.61 0.305 9.135 1.254 16.965 5.934 7.83 4.616 9.57 5.721 13.051 6.086 3.478 0.351 7.829 0.247 13.049-1.08 5.219-1.289 2.173 1.642 8.699 0.972 6.525-0.633 10.44-0.992 13.484-1.038 3.045-0.084 11.311-2.706 14.356-6.456 1.142-1.431 2.468-2.634 3.887-3.587 4.142 0.127 7.734-0.253 8.387 1.259 0.869 2.019 3.915 2.923 3.915 2.923 0-3e-3 4.785 0.882 6.524 2.561 1.74 1.674 1.305 2.276 4.35 2.757s8.265 1.966 10.005 4.379c1.74 2.411 0-3e-3 2.174-0.066 2.176-0.061 4.351 0.664 6.525 2.113 2.175 1.459 6.961 2.539 9.135 2.238 2.176-0.318 4.35-2.703 8.264-1.175 3.916 1.479 2.611 0.368 7.831 0.988 5.219 0.574 10.874-0.458 13.92 0.614 3.044 1.051 5.654 2.841 11.309 3.964 5.654 1.221 14.355 5.329 21.315 7.448 6.959 2.176 10.439 2.494 15.66 2.529h18.268c5.22-0.023 13.486-0.902 20.879-1.292 7.396-0.406 10.441-0.353 16.204-0.01 5.764 0.329 7.286 0.259 13.375 0.091 6.09-0.174 10.875-0.64 16.965-1.05 6.09-0.382 7.395-1.781 11.744-1.896 4.351-0.102 5.221 0.057 9.135-0.064 3.916-0.126 5.655-0.596 8.266-0.717 2.609-0.109 9.134-0.467 16.965-0.166 7.83 0.317 9.568 0.473 13.048 0.245 3.481-0.236 7.83-0.639 13.051-1.704 5.219-1.116 2.174 0.288 8.699-0.832 6.524-1.174 10.44-2.085 13.485-2.689 3.045-0.548 11.309-3.726 14.353-7.187 3.046-3.347 7.396-6.715 11.311-8.793 3.914-2.033 12.18-7.107 19.139-14.449 6.96-7.563 23.06-7.525 23.06-7.188v-468.09h-800v465c0-0.24 13.009-1.631 17.794-2.805" fill="#dd3f40"/>
   </g>
   <g transform="matrix(.35278 0 0 .44096 -37.49 169.13)" fill="#ad3435">
    <path d="m0 0s6.907-9.417 18.897-0.424c11.99 8.992 26.229 14.987 32.974 17.236 6.744 2.249 14.238 8.243 19.484 16.487 5.246 8.243 19.484 14.988 24.73 15.737s11.99 2.248 23.231 4.496c11.241 2.249 5.995-2.997 14.988 0 8.993 2.998 16.487 3.747 22.482 3.747s8.992-1.498 22.482-6.744c13.489-5.246 24.73-5.246 29.226-5.246s7.494 2.998 14.239 2.998c6.744 0 8.243-1.499 15.737-1.499 7.493 0 9.742 11.99 20.234 15.737 10.491 3.747 18.734 8.993 29.226 11.241 10.491 2.248 13.114 2.998 23.044 0 9.929-2.997 15.175-2.79 27.915 1.977 12.739 4.768 26.978 13.011 35.971 13.011h31.474c8.993 0 14.988-2.998 26.978-13.489 11.991-10.492 26.979-24.73 36.721-26.978s14.238-7.494 19.485-9.743c5.245-2.248 14.988 3.498 23.98 3.623s6.744 2.872 13.489 0c6.744-2.873 10.492 4.621 14.239 6.12 3.747 1.498 11.99 0 15.737-2.998 3.746-2.997 7.494-3.997 11.241-3.122 3.746 0.874 0.749 6.12 3.746 0.874 2.998-5.246 11.991-6.745 17.237-6.745s4.496-1.499 7.494-4.496c2.997-2.998 11.241-2.998 11.241-2.998s5.245-0.749 6.744-4.496 11.99 1.499 21.732 1.499c9.743 0 8.245-5.995 16.488-7.494s17.236-2.249 22.481-0.749c5.246 1.499-4.496 5.995 5.246 1.499 9.741-4.498 8.993-5.247 20.234-5.247s25.479 3.748 30.725 3.748c5.245 0 22.482-6.746 30.725-7.495s37.703 20.933 37.703 20.933v-415h-800z" fill="#ad3435"/>
   </g>
   <g transform="matrix(.35278 0 0 .44096 -37.49 146.65)" fill="#682c2c">
    <path d="m0 0s4.516 4.597 20 8.467c15.484 3.871 27.097 3.871 32.258 4.516 5.161 0.646 10.323 0 19.355 0s25.161-4.229 38.065-8.566c12.903-4.337 14.193-5.628 26.451-4.982 12.258 0.645 13.548-3.583 27.742 4.982 14.193 8.566 20.645 26.648 26.451 31.155 5.807 4.508-0.645 4.508 15.485 10.315 16.129 5.805 16.129 8.386 23.871 14.838 7.741 6.452 12.903 14.194 20.645 22.581 7.741 8.387 16.129 17.419 25.806 25.161s18.064 24.516 27.742 29.033c9.677 4.516 12.903 0 23.226 5.806 10.322 5.806 3.225 10.322 11.613 16.129 8.387 5.806 19.354 9.677 32.258 12.258 12.903 2.58 12.903 0.645 24.516 7.097 11.613 6.451 38.064 18.71 42.58 21.29 4.516 2.581 8.388 7.742 11.614 0 3.225-7.742 12.258-14.839 15.483-16.129 3.226-1.29 13.548 12.903 26.452 9.032 12.903-3.871 4.516-5.806 9.677-6.451 5.161-0.646 9.678 3.226 17.42-7.742 7.741-10.968 20-31.613 30.322-42.581 10.323-10.967 38.065-37.419 44.517-42.581 6.451-5.161 26.451-20 29.031-24.517 2.581-4.515 1.291-3.224 10.323 0.646 9.033 3.871 9.677-3.225 15.485-3.87 5.805-0.646 1.934 7.096 12.257 9.677 10.323 2.58 9.677-0.645 16.128-6.453 6.453-5.805 19.356-10.321 29.678-18.708 10.323-8.388 9.032-9.66 27.097-14.831 18.064-5.169 25.161-18.718 34.194-22.589 9.031-3.871 32.258-5.983 32.258-5.983v-340h-800z" fill="#682c2c"/>
   </g>
   <g transform="matrix(.35278 0 0 .44096 -37.49 -.19431)" fill="#262020">
    <g fill="#262020">
     <g clip-path="url(#clipPath5516)" fill="#262020" opacity=".3">
      <g transform="translate(800,305)" fill="#262020">
       <path d="m0 0s-28-0.145-36-0.145-7.333 4.666-26.666 9.334c-19.334 4.666-34.668 12.666-42.668 14.666s-3.333-0.666-20 0c-16.666 0.667-18 2-26.666 4s-8.666 4-14 4.667-11.334-7.333-16 0 0 12.001-12.666 11.333c-12.668-0.666-40.001 0.795-48.668 0.065-8.666-0.731-9.999-0.85-21.332 0.21-11.334 1.059-34.001-1.06-42.668 0-8.666 1.059-17.332 3.725-25.332 3.725s-9.334 1.334-18 5.334c-8.668 4-15.334 5.333-27.334 5.333s-14-4-18.666 0c-4.668 4-4.668 7.333-21.334 11.333s-21.334 6-32 6-18.666 1.334-36.666 0c-18-1.333-28-2-37.334-4.666-9.334-2.667-11.333-3.334-24.666-11.334-13.334-8-32-23.332-44-30-12-6.666-14.668-5.666-32.668-16-18-10.333-19.333-22-28-30.666-8.666-8.667-10-8-34-10.667s-30 36.667-42 31.333c-12-5.333-20.666-23.334-28-26.666-7.332-3.334-13.332-6.666-19.332-7.334-6-0.666-23.334 22.145-23.334 22.145v-297h800z" fill="#262020"/>
      </g>
     </g>
    </g>
   </g>
   <g transform="matrix(.35278 0 0 .44096 -37.49 -.19431)" fill="#0f1719">
    <g fill="#0f1719">
     <g clip-path="url(#clipPath5532)" fill="#0f1719" opacity=".3">
      <g transform="translate(0,222)" fill="#0f1719">
       <path d="m0 0s42.744-7.49 56.486-4.386c13.743 3.104 31.476 7.979 47.435 9.31 15.959 1.33 20.835 7.535 36.794 14.628 15.96 7.094 15.074 6.207 36.352 14.186 21.279 7.98 33.69 9.753 47.434 16.403 13.744 6.649 20.837 1.331 29.703 11.084 8.865 9.753 39.453 24.825 48.763 23.938s14.631-9.754 27.043-16.846 14.628-13.744 28.814-16.846c14.187-3.103 33.692-5.319 45.661-7.979 11.972-2.659 18.177-1e-3 35.467 0.887 17.288 0.887 30.588 2.167 43.888-4.458s10.197-7.512 29.702-3.523c19.505 3.99 39.898 14.581 56.743 3.523 16.845-11.059 15.515-12.834 34.579-15.049 19.063-2.217 23.053-0.886 44.331-8.423 21.28-7.537 27.928-8.867 47.879-3.547 19.948 5.321 11.968 20.393 35.906 13.3 23.94-7.093 31.032-9.307 42.115-12.855 11.083-3.547 24.905-2.756 24.905-2.756l0.679-232.59h-800.68z" fill="#0f1719"/>
      </g>
     </g>
    </g>
   </g>
   <g transform="matrix(.35278 0 0 .44096 -37.49 -.19431)" fill="#031111">
    <g fill="#031111">
     <g clip-path="url(#clipPath5548)" fill="#031111" opacity=".3">
      <g transform="translate(0,186)" fill="#031111">
       <path d="m0 0s5.145-12.846 12.861-16.888 12.493-9.186 16.535-8.451 6.982 5.279 9.554 4.845c2.572-0.436 11.758 2.272 14.698 0 2.94-2.273 1.47 2.916 2.572 4.915 1.103 1.999 11.391 4.203 13.964 4.571 2.571 0.367 4.042 2.571 9.553 2.94 5.512 0.367 25.354-7.053 34.541-8.671 9.186-1.618 22.782-2.353 27.926-4.558 5.145-2.205 9.921-9.921 13.596-10.656 3.674-0.735 6.981-3.307 11.023-2.205 4.043 1.102 9.187 5.88 12.494 2.205 3.307-3.674 6.246-5.512 12.861-5.879 6.614-0.367 12.126-5.512 14.33-6.614 2.205-1.103 5.88 0.367 10.289 5.144 4.41 4.777 6.982 7.349 10.656 9.921s6.982 5.512 10.289 9.921c3.307 4.41 0.367 6.614 7.716 7.35 7.349 0.734 12.126 0.761 19.475 4.055 7.349 3.293 4.777 4.763 15.8 5.866 11.024 1.102 22.048-1.837 27.192-5.145 5.145-3.307 10.657-6.246 15.066-6.613 4.409-0.368 3.674 1.101 11.391-0.736 7.716-1.837 8.818-2.205 15.433-4.777 6.613-2.572 5.144-4.52 13.228-3.914 8.084 0.607 20.944 5.752 25.722 5.752 4.777 0 6.982-3.786 12.493-5.752 5.512-1.965 10.289-1.23 15.065-4.904 4.778-3.675 5.88-6.982 9.187-9.554 3.306-2.572 1.838-2.899 7.717-6.962 5.878-4.061 11.758-6.267 13.228-6.634 1.47-0.368 1.837-2.572 6.246-4.41 4.409-1.837 6.247-0.734 10.656-3.307 4.41-2.572 4.042-2.939 9.554-5.511 5.513-2.573 5.879-4.042 10.289-6.615 4.409-2.572 3.675-1.102 8.084-4.777 4.409-3.674 2.572-4.776 9.186-6.981 6.614-2.204 2.572-1.102 9.186-3.674 6.615-2.572 6.982-1.47 8.452-2.94 1.469-1.469 9.187 8.057 14.698 10.091 5.512 2.034 5.88 4.607 11.391 9.017 5.512 4.409 5.879 8.084 11.391 11.39 5.512 3.307 3.675 1.837 8.819 5.145 5.145 3.307 6.246 9.187 12.493 12.493 6.247 3.308 5.88 2.94 9.554 6.247 3.675 3.307 2.572 6.246 4.777 6.982 2.205 0.734 9.186-0.368 9.186-0.368l2.205 5.144s-5.88 3.675 4.409 4.777c10.289 1.103 7.717 0.736 10.289 1.103 2.573 0.367 7.349 5.879 8.82 6.614 1.469 0.735 2.939 1.837 5.143 4.041 2.205 2.205 3.308 3.412 6.247 5.014 2.94 1.6 1.837 1.969 9.921 1.969s16.168 2.204 18.74 2.572c2.573 0.367 6.615 2.939 9.922 0 3.307-2.941 5.512-3.308 13.595-5.512 8.084-2.205 5.145-4.097 13.229-2.232 8.084 1.864 5.511 1.864 9.92 2.232 4.411 0.367 13.229 1.47 17.639 1.102 4.409-0.367 3.674 0.313 5.879-3.334 2.204-3.648-0.367-3.281 4.409-5.852 4.777-2.572 8.819-2.572 12.493-2.572 3.675 0 6.615 2.572 16.536 5.879 9.921 3.306 10.279 20.476 22.121 13.456 1.982-1.175 8.745 7.245 8.745 7.245l-0.679-199h-800z" fill="#031111"/>
      </g>
     </g>
    </g>
   </g>
  </g>
 </g>
</svg>
