<svg version="1.1" viewBox="0 0 18.858 14.367" xmlns="http://www.w3.org/2000/svg">
 <g transform="translate(-59.161 -110.28)" id="logo-path">
  <path transform="scale(.26458)" d="m238.36 416.84 7.8066 38.551 7.2285-38.551zm29.811 0v54.281h17.414c0.58888 0 1.1613-0.0625 1.7207-0.16211-1.8819-0.29443-3.5033-0.92183-4.8516-1.8984-1.9301-1.3981-3.0239-3.5719-3.2812-6.5234l-0.77148-10.408c-0.12868-1.8124-0.54816-3.029-1.2559-3.6504-0.64337-0.67316-1.994-1.0098-4.0527-1.0098v-6.9902c2.0588 0 3.4094-0.31222 4.0527-0.93359 0.7077-0.67317 1.1272-1.9162 1.2559-3.7285l0.77148-10.408c0.25735-2.9516 1.3512-5.1253 3.2812-6.5234 1.338-0.96918 2.9451-1.5952 4.8086-1.8926-0.54598-0.0947-1.1039-0.15234-1.6777-0.15234zm25.574 6.9375c-1.6728 0-2.9273 0.38929-3.7637 1.166-0.77204 0.72495-1.2229 2.1748-1.3516 4.3496l-0.48242 7.7676c-0.0643 0.72494-0.19175 1.4489-0.38476 2.1738-0.19301 0.72494-0.51449 1.3982-0.96485 2.0195-0.45035 0.62138-1.0953 1.1648-1.9316 1.6309-0.77204 0.46603-1.7678 0.82898-2.9902 1.0879 1.2224 0.25891 2.2182 0.6482 2.9902 1.166 0.83638 0.46604 1.4813 1.0095 1.9316 1.6309 0.45036 0.62138 0.77184 1.2946 0.96485 2.0195 0.19301 0.67316 0.32042 1.3708 0.38476 2.0957l0.48242 7.7676c0.12868 2.1748 0.57953 3.651 1.3516 4.4277 0.83637 0.72494 2.0909 1.0879 3.7637 1.0879h1.1426c0.25546-0.87141 0.39843-1.7918 0.39843-2.748v-34.879c0-0.96118-0.14431-1.8883-0.40234-2.7637zm-35.611 8.3887-7.3262 38.955h7.3262zm-25.285 0.54492v38.367c0.27241 0.0228 0.54573 0.043 0.82422 0.043h7.082z" fill="#fff"/>
 </g>
 <g transform="translate(-59.161 -110.28)" id="letters">
  <path transform="scale(.26458)" d="m233.48 416.8c-5.4751 0-9.8828 4.4077-9.8828 9.8828v34.533c0 5.2602 4.0714 9.524 9.2461 9.8516v-38.354l7.9004 38.385h10.062l7.3223-38.93v38.93h10.037v-54.299h-14.768l-7.2363 38.594-7.8144-38.594zm53.844 0.18555c-1.892 0.29279-3.5212 0.92165-4.875 1.9023-1.9301 1.3981-3.0239 3.5719-3.2812 6.5234l-0.77148 10.408c-0.12868 1.8124-0.54816 3.0554-1.2559 3.7285-0.64337 0.62137-1.994 0.93359-4.0527 0.93359v6.9902c2.0588 0 3.4094 0.33661 4.0527 1.0098 0.7077 0.62138 1.1272 1.838 1.2559 3.6504l0.77148 10.408c0.25735 2.9516 1.3512 5.1253 3.2812 6.5234 1.3136 0.95151 2.8869 1.5711 4.707 1.875 3.6612-0.64436 6.6174-3.2818 7.7012-6.7676h-1.1172c-1.6728 0-2.9273-0.36295-3.7637-1.0879-0.77204-0.77672-1.2229-2.2529-1.3516-4.4277l-0.48242-7.7676c-0.0643-0.72494-0.19175-1.4225-0.38476-2.0957-0.19301-0.72495-0.51449-1.3982-0.96485-2.0195-0.45035-0.62138-1.0953-1.1648-1.9316-1.6309-0.77204-0.51781-1.7678-0.9071-2.9902-1.166 1.2224-0.25891 2.2182-0.62186 2.9902-1.0879 0.83638-0.46604 1.4813-1.0095 1.9316-1.6309 0.45036-0.62138 0.77184-1.2946 0.96485-2.0195 0.19301-0.72495 0.32042-1.4489 0.38476-2.1738l0.48242-7.7676c0.12868-2.1748 0.57953-3.6247 1.3516-4.3496 0.83637-0.77672 2.0909-1.166 3.7637-1.166h1.1328c-1.0542-3.4585-3.9464-6.0972-7.5488-6.7949z" fill="#ad3435" fill-opacity=".38191" />
 </g>
</svg>
